<svg width="14" height="14" viewBox="0 0 14 14" fill="none" xmlns="http://www.w3.org/2000/svg">
<path d="M12.6296 11.2856C12.6296 12.0351 12.0227 12.6428 11.2733 12.6428H2.71353C1.96412 12.6428 1.35635 12.0351 1.35635 11.2856V5.56459H3.44565C3.25788 6.01918 3.16153 6.50506 3.16071 6.99753C3.16071 9.11071 4.87365 10.8245 6.98682 10.8245C9.09918 10.8245 10.8121 9.11071 10.8121 6.99671C10.8088 6.50588 10.7116 6.02 10.5272 5.56459H12.6165L12.6296 11.2856ZM5.00624 5.56459C5.71612 4.58624 7.03212 4.27 8.10929 4.81929C9.18647 5.36941 9.70282 6.62118 9.32729 7.77082C8.95094 8.92047 7.79553 9.62541 6.60141 9.43271C5.40729 9.24 4.53271 8.20565 4.53765 6.99671C4.54094 6.482 4.704 5.98129 5.00624 5.56459ZM12.0672 1.62318H12.3719V3.99165H10.0116V1.62894L12.0672 1.62318ZM11.2873 0.00658825H2.71353C1.21471 0.00658825 0 1.22212 0 2.72176V11.2865C0 12.7853 1.21471 14 2.71353 14H11.2865C12.7853 14 14 12.7845 14 11.2856V2.71435C14 1.21553 12.7853 0 11.2873 0" fill="white"/>
</svg>
