<svg width="14" height="14" viewBox="0 0 14 14" fill="none" xmlns="http://www.w3.org/2000/svg">
<path fill-rule="evenodd" clip-rule="evenodd" d="M1.6945 0C2.63064 0 3.389 0.712039 3.389 1.6855C3.389 2.65983 2.63064 3.37101 1.6945 3.37101C0.758366 3.37101 0 2.66069 0 1.6855C0 0.712899 0.758366 0 1.6945 0ZM4.93026 4.67125H7.75705V5.96376H7.79383C8.07844 5.38931 9.07062 4.40897 10.5874 4.40897C12.2276 4.40897 14 5.38071 14 8.22973V14H11.0611V8.90393C11.0611 7.40074 10.421 6.93722 9.59605 6.93722C8.72384 6.93722 7.86914 7.59337 7.86914 8.94177V13.9991H4.93026V4.67125ZM0.225058 13.9914H3.16395V4.66437H0.225058V13.9914Z" fill="white"/>
</svg>
