<svg width="16" height="14" viewBox="0 0 16 14" fill="none" xmlns="http://www.w3.org/2000/svg">
<path d="M0.566861 13.9994C2.42158 11.8783 4.26651 9.76787 6.11238 7.65717C4.16392 5.10804 2.21704 2.56049 0.26416 0.00568156C0.289412 0.00378771 0.307088 0.00126257 0.324448 0.00126257C1.91876 0.00126257 3.51307 0.00126257 5.10738 0C5.14904 0 5.17177 0.0148352 5.19544 0.0463994C5.53728 0.502818 5.87944 0.958606 6.22349 1.41345C6.71084 2.05799 7.20009 2.70127 7.68807 3.34549C7.95921 3.70312 8.22971 4.06169 8.50053 4.41962C8.51316 4.43635 8.52641 4.45245 8.5422 4.47297C8.64825 4.35176 8.75147 4.23403 8.85437 4.11598C9.15075 3.77698 9.44714 3.43798 9.74322 3.09898C10.6305 2.08387 11.5181 1.06876 12.4044 0.0530279C12.436 0.016729 12.4669 0 12.5168 0C13.262 0.00189385 14.0072 0.00126257 14.7521 0.00126257H14.8254C13.0922 1.98255 11.3675 3.95405 9.63937 5.92966C11.6705 8.61703 13.7007 11.3025 15.736 13.9949C15.7126 13.9965 15.6953 13.9991 15.6779 13.9991C14.124 13.9991 12.5698 13.9991 11.0159 14C10.9783 14 10.9553 13.9899 10.9319 13.9593C10.0923 12.8593 9.25176 11.7599 8.4112 10.6605C8.03022 10.1624 7.64956 9.66402 7.26858 9.16594C7.25469 9.14763 7.24049 9.12932 7.2225 9.10628C7.07004 9.28052 6.92074 9.45065 6.77176 9.62078C6.2459 10.2214 5.72035 10.8224 5.19449 11.4231C4.53922 12.1718 3.88395 12.9208 3.22867 13.6695C3.14219 13.7683 3.05665 13.8681 2.96858 13.9653C2.95375 13.9817 2.92787 13.9975 2.90672 13.9975C2.13182 13.9991 1.35691 13.9987 0.56623 13.9987L0.566861 13.9994ZM12.9192 12.5806C12.9227 12.5802 12.9265 12.5796 12.9299 12.5793L12.922 12.567C12.9116 12.5512 12.9018 12.5348 12.8905 12.52C12.4754 11.9707 12.0603 11.4215 11.645 10.8723C11.0367 10.068 10.4285 9.26379 9.82055 8.45921C9.33351 7.8153 8.84679 7.17139 8.36007 6.52748C7.86167 5.86842 7.36359 5.20873 6.86487 4.54998C6.40151 3.93795 5.93625 3.3275 5.47321 2.71516C5.13073 2.26252 4.79016 1.808 4.44895 1.35442C4.44421 1.3519 4.43916 1.34937 4.43443 1.34685H3.03392C3.05223 1.37273 3.06391 1.38977 3.07653 1.40619C3.35304 1.76791 3.62954 2.12995 3.90604 2.49168C4.3915 3.12644 4.87696 3.76119 5.36242 4.39595C5.90185 5.10141 6.44128 5.80719 6.98071 6.51265C7.46459 7.14551 7.94847 7.77837 8.43204 8.41124C8.86194 8.97371 9.29185 9.53587 9.72175 10.0983C10.3426 10.9105 10.9635 11.7226 11.5853 12.5342C11.602 12.5563 11.6336 12.5809 11.6582 12.5809C12.0783 12.5831 12.4988 12.5818 12.9189 12.5812L12.9192 12.5806Z" fill="white"/>
</svg>
