<svg width="14" height="10" viewBox="0 0 14 10" fill="none" xmlns="http://www.w3.org/2000/svg">
<path fill-rule="evenodd" clip-rule="evenodd" d="M5.6 7.09442V2.90558L9.23703 5.00038L5.6 7.09442ZM13.7072 1.63907C13.5471 1.03869 13.0716 0.565281 12.4696 0.404672C11.378 0.113281 7 0.113281 7 0.113281C7 0.113281 2.62197 0.113281 1.5304 0.404672C0.927607 0.565281 0.452872 1.03946 0.292805 1.63907C0 2.72891 0 5.00038 0 5.00038C0 5.00038 0 7.27185 0.292805 8.36093C0.453653 8.9613 0.927607 9.43472 1.5304 9.59532C2.62197 9.88671 7 9.88672 7 9.88672C7 9.88672 11.378 9.88671 12.4696 9.59532C13.0716 9.43472 13.5463 8.9613 13.7072 8.36093C14 7.27185 14 5.00038 14 5.00038C14 5.00038 14 2.72891 13.7072 1.63907Z" fill="white"/>
</svg>
