<svg width="15" height="17" viewBox="0 0 15 17" fill="none" xmlns="http://www.w3.org/2000/svg">
<path d="M7.79998 3.53851C7.35998 3.53851 6.98331 3.38184 6.66998 3.06851C6.35664 2.75518 6.19998 2.37851 6.19998 1.93851C6.19998 1.49851 6.35664 1.12184 6.66998 0.808509C6.98331 0.495175 7.35998 0.338509 7.79998 0.338509C8.23997 0.338509 8.61664 0.495175 8.92998 0.808509C9.24331 1.12184 9.39997 1.49851 9.39997 1.93851C9.39997 2.37851 9.24331 2.75518 8.92998 3.06851C8.61664 3.38184 8.23997 3.53851 7.79998 3.53851ZM5.39998 16.3385V5.93851C4.59998 5.87184 3.78664 5.77184 2.95998 5.63851C2.13331 5.50518 1.34664 5.33851 0.599976 5.13851L0.999976 3.53851C2.03998 3.81851 3.14664 4.02184 4.31998 4.14851C5.49331 4.27518 6.65331 4.33851 7.79998 4.33851C8.94664 4.33851 10.1066 4.27518 11.28 4.14851C12.4533 4.02184 13.56 3.81851 14.6 3.53851L15 5.13851C14.2533 5.33851 13.4666 5.50518 12.64 5.63851C11.8133 5.77184 11 5.87184 10.2 5.93851V16.3385H8.59998V11.5385H6.99998V16.3385H5.39998Z" fill="black"/>
</svg>
