<svg width="45" height="45" viewBox="0 0 45 45" fill="none" xmlns="http://www.w3.org/2000/svg">
<rect x="0.2" y="44.8" width="44.6" height="44.6" rx="22.3" transform="rotate(-90 0.2 44.8)" stroke="#C1C1C1" stroke-width="0.4"/>
<path d="M28.3993 29.6791C28.4632 29.6162 28.4995 29.5307 28.5 29.4414C28.5004 29.3971 28.4917 29.3531 28.4744 29.3123C28.457 29.2714 28.4315 29.2345 28.3993 29.2037L22.7438 23.5993C22.7125 23.5678 22.6751 23.5428 22.634 23.5258C22.5928 23.5087 22.5486 23.4999 22.504 23.4999C22.4594 23.4999 22.4152 23.5087 22.374 23.5258C22.3328 23.5428 22.2955 23.5678 22.2642 23.5993L16.6075 29.2037C16.5743 29.2345 16.5476 29.2717 16.5292 29.3129C16.5107 29.3541 16.5008 29.3986 16.5 29.4437C16.4993 29.4888 16.5077 29.5336 16.5248 29.5754C16.5418 29.6173 16.5672 29.6552 16.5994 29.6871C16.6316 29.719 16.6699 29.7442 16.7121 29.7611C16.7543 29.778 16.7995 29.7863 16.845 29.7856C16.8905 29.7848 16.9354 29.775 16.977 29.7567C17.0187 29.7384 17.0561 29.712 17.0872 29.6791L22.504 24.3123L27.9196 29.6791C27.951 29.7104 27.9884 29.7353 28.0295 29.7522C28.0707 29.7692 28.1148 29.7779 28.1594 29.7779C28.204 29.7779 28.2481 29.7692 28.2893 29.7522C28.3305 29.7353 28.3678 29.7104 28.3993 29.6791Z" fill="#C1C1C1"/>
<path d="M28.3993 21.3934C28.4632 21.3305 28.4995 21.2451 28.5 21.1558C28.5004 21.1114 28.4917 21.0675 28.4744 21.0266C28.457 20.9858 28.4315 20.9488 28.3993 20.9181L22.7438 15.3137C22.7125 15.2822 22.6751 15.2572 22.634 15.2401C22.5928 15.2231 22.5486 15.2143 22.504 15.2143C22.4594 15.2143 22.4152 15.2231 22.374 15.2401C22.3328 15.2572 22.2955 15.2822 22.2642 15.3137L16.6075 20.9181C16.5743 20.9489 16.5476 20.986 16.5292 21.0273C16.5107 21.0685 16.5008 21.113 16.5 21.1581C16.4993 21.2032 16.5077 21.248 16.5248 21.2898C16.5418 21.3316 16.5672 21.3696 16.5994 21.4015C16.6316 21.4334 16.6699 21.4585 16.7121 21.4755C16.7543 21.4924 16.7995 21.5007 16.845 21.5C16.8905 21.4992 16.9354 21.4894 16.977 21.4711C17.0187 21.4528 17.0561 21.4264 17.0872 21.3934L22.504 16.0267L27.9196 21.3934C27.951 21.4248 27.9884 21.4496 28.0295 21.4666C28.0707 21.4836 28.1148 21.4923 28.1594 21.4923C28.204 21.4923 28.2481 21.4836 28.2893 21.4666C28.3305 21.4496 28.3678 21.4248 28.3993 21.3934Z" fill="#C1C1C1"/>
</svg>
