<svg width="13" height="12" viewBox="0 0 13 12" fill="none" xmlns="http://www.w3.org/2000/svg">
<path id="call" d="M11.2126 12C9.94821 12 8.65209 11.6834 7.32421 11.0503C5.99634 10.4171 4.76028 9.52831 3.61603 8.38406C2.4814 7.23994 1.59746 6.00631 0.964214 4.68319C0.331089 3.36006 0.0145264 2.06631 0.0145264 0.801938C0.0145264 0.576938 0.0895264 0.387 0.239526 0.232125C0.389526 0.0773751 0.577026 0 0.802026 0H2.65678C2.86065 0 3.03853 0.0641879 3.1904 0.192563C3.3424 0.320938 3.44534 0.485625 3.49921 0.686625L3.87121 2.475C3.90584 2.68462 3.89959 2.86781 3.85246 3.02456C3.80534 3.18131 3.72215 3.30969 3.6029 3.40969L1.9574 4.94419C2.26503 5.50281 2.60515 6.02181 2.97778 6.50119C3.3504 6.98056 3.74778 7.43463 4.1699 7.86337C4.6054 8.299 5.07415 8.70406 5.57615 9.07856C6.07803 9.45306 6.62896 9.80669 7.22896 10.1394L8.83284 8.50669C8.95496 8.37494 9.09221 8.28819 9.24459 8.24644C9.39696 8.20456 9.56546 8.19613 9.75009 8.22112L11.3279 8.54419C11.5318 8.59419 11.6972 8.69688 11.8242 8.85225C11.9511 9.0075 12.0145 9.18563 12.0145 9.38663V11.2125C12.0145 11.4375 11.9372 11.625 11.7824 11.775C11.6275 11.925 11.4376 12 11.2126 12Z" fill="#1C1B1F"/>
</svg>
