<svg width="12" height="12" viewBox="0 0 12 12" fill="none" xmlns="http://www.w3.org/2000/svg">
<path id="contrast" d="M6.00217 12C5.1725 12 4.39244 11.8426 3.662 11.5277C2.93167 11.2128 2.29633 10.7854 1.756 10.2457C1.21567 9.70589 0.787944 9.07111 0.472833 8.34133C0.157611 7.61167 0 6.83194 0 6.00217C0 5.1725 0.157444 4.39244 0.472333 3.662C0.787222 2.93167 1.21456 2.29633 1.75433 1.756C2.29411 1.21567 2.92889 0.787944 3.65867 0.472833C4.38833 0.157611 5.16806 0 5.99783 0C6.8275 0 7.60756 0.157445 8.338 0.472334C9.06833 0.787223 9.70367 1.21456 10.244 1.75433C10.7843 2.29411 11.2121 2.92889 11.5272 3.65867C11.8424 4.38833 12 5.16806 12 5.99783C12 6.8275 11.8426 7.60756 11.5277 8.338C11.2128 9.06833 10.7854 9.70367 10.2457 10.244C9.70589 10.7843 9.07111 11.2121 8.34133 11.5272C7.61167 11.8424 6.83194 12 6.00217 12ZM6.33333 11.3218C7.70689 11.2321 8.88361 10.6857 9.8635 9.68267C10.8434 8.67967 11.3333 7.45211 11.3333 6C11.3333 4.54789 10.8477 3.32461 9.87633 2.33017C8.90489 1.33572 7.72389 0.785056 6.33333 0.678167V11.3218Z" fill="#1C1B1F"/>
</svg>
