<svg width="12" height="12" viewBox="0 0 12 12" fill="none" xmlns="http://www.w3.org/2000/svg">
<path d="M6.05084 12C4.374 12 2.94874 11.4132 1.77505 10.2395C0.601369 9.06566 0.0145264 7.6404 0.0145264 5.96369C0.0145264 4.43524 0.512711 3.10996 1.50908 1.98783C2.50545 0.865708 3.73881 0.203097 5.20915 0C5.24977 0 5.2897 0.00144698 5.32893 0.00433938C5.36804 0.00723178 5.40646 0.0115704 5.44419 0.0173552C5.18978 0.372366 4.98838 0.767304 4.83999 1.20217C4.69147 1.63691 4.61721 2.09227 4.61721 2.56826C4.61721 3.90971 5.08666 5.04988 6.02556 5.98878C6.96459 6.9278 8.10482 7.39731 9.44626 7.39731C9.92502 7.39731 10.3811 7.32305 10.8146 7.17453C11.248 7.02602 11.6373 6.82455 11.9826 6.57015C11.9884 6.60788 11.9928 6.64636 11.9957 6.68559C11.9986 6.7247 12 6.76463 12 6.80538C11.8066 8.27572 11.1488 9.50908 10.0267 10.5054C8.90457 11.5018 7.57928 12 6.05084 12Z" fill="#1C1B1F"/>
</svg>
