<svg width="13" height="12" viewBox="0 0 13 12" fill="none" xmlns="http://www.w3.org/2000/svg">
<path d="M5.72881 1.36257V0H6.30024V1.36257H5.72881ZM5.72881 12V10.6374H6.30024V12H5.72881ZM10.652 6.28571V5.71429H12.0145V6.28571H10.652ZM0.0145264 6.28571V5.71429H1.3771V6.28571H0.0145264ZM9.62338 2.79557L9.21896 2.39114L10.0431 1.56043L10.4541 1.97143L9.62338 2.79557ZM1.98595 10.4396L1.57495 10.0286L2.40567 9.20443L2.8101 9.60886L1.98595 10.4396ZM10.0431 10.4396L9.21896 9.60886L9.62338 9.20443L10.4541 10.0286L10.0431 10.4396ZM2.40567 2.79557L1.57495 1.97143L1.98595 1.56043L2.8101 2.39114L2.40567 2.79557ZM6.0171 8.85714C5.22415 8.85714 4.54929 8.57962 3.99253 8.02457C3.43576 7.46952 3.15738 6.79552 3.15738 6.00257C3.15738 5.20962 3.43491 4.53476 3.98996 3.978C4.545 3.42124 5.219 3.14286 6.01196 3.14286C6.80491 3.14286 7.47976 3.42038 8.03653 3.97543C8.59329 4.53048 8.87167 5.20448 8.87167 5.99743C8.87167 6.79038 8.59415 7.46524 8.0391 8.022C7.48405 8.57876 6.81005 8.85714 6.0171 8.85714Z" fill="#1C1B1F"/>
</svg>
