<svg id="SvgjsSvg1001" width="288" height="288" xmlns="http://www.w3.org/2000/svg" version="1.1" xmlns:xlink="http://www.w3.org/1999/xlink" xmlns:svgjs="http://svgjs.com/svgjs"><defs id="SvgjsDefs1002"></defs><g id="SvgjsG1008"><svg xmlns="http://www.w3.org/2000/svg" fill="none" viewBox="0 0 12 13" width="288" height="288"><path fill="#000000" fill-opacity=".6" d="M1.21153 12.5C0.866344 12.5 0.578125 12.3844 0.346875 12.1531C0.115625 11.9219 0 11.6337 0 11.2885V1.71153C0 1.36634 0.115625 1.07812 0.346875 0.846875C0.578125 0.615625 0.866344 0.5 1.21153 0.5H5.42308V1.25H1.21153C1.09616 1.25 0.990388 1.29808 0.894225 1.39423C0.798075 1.49039 0.75 1.59616 0.75 1.71153V11.2885C0.75 11.4038 0.798075 11.5096 0.894225 11.6058C0.990388 11.7019 1.09616 11.75 1.21153 11.75H10.7885C10.9038 11.75 11.0096 11.7019 11.1058 11.6058C11.2019 11.5096 11.25 11.4038 11.25 11.2885V7.07692H12V11.2885C12 11.6337 11.8844 11.9219 11.6531 12.1531C11.4219 12.3844 11.1337 12.5 10.7885 12.5H1.21153ZM4.30384 8.72692L3.77308 8.19616L10.7192 1.25H7.5V0.5H12V5H11.25V1.78077L4.30384 8.72692Z" class="colorfff svgShape"></path></svg></g></svg>