<svg width="42" height="28" viewBox="0 0 42 28" fill="none" xmlns="http://www.w3.org/2000/svg">
<path d="M2.33333 28C1.04467 28 0 26.9553 0 25.6667C0 24.378 1.04467 23.3333 2.33333 23.3333H39.6667C40.9553 23.3333 42 24.378 42 25.6667C42 26.9553 40.9553 28 39.6667 28H2.33333ZM2.33333 16.3333C1.04467 16.3333 0 15.2887 0 14C0 12.7113 1.04467 11.6667 2.33333 11.6667H39.6667C40.9553 11.6667 42 12.7113 42 14C42 15.2887 40.9553 16.3333 39.6667 16.3333H2.33333ZM2.33333 4.66667C1.04467 4.66667 0 3.622 0 2.33333C0 1.04467 1.04467 0 2.33333 0H39.6667C40.9553 0 42 1.04467 42 2.33333C42 3.622 40.9553 4.66667 39.6667 4.66667H2.33333Z" fill="white"/>
</svg>
