<svg width="12" height="16" viewBox="0 0 12 16" fill="none" xmlns="http://www.w3.org/2000/svg">
<path d="M6.30019 9.64384C5.68766 9.64384 5.16923 9.43167 4.74491 9.00734C4.32058 8.58301 4.10841 8.06458 4.10841 7.45205V2.19178C4.10841 1.57925 4.32058 1.06082 4.74491 0.636493C5.16923 0.212164 5.68766 0 6.30019 0C6.91272 0 7.43115 0.212164 7.85548 0.636493C8.27981 1.06082 8.49197 1.57925 8.49197 2.19178V7.45205C8.49197 8.06458 8.27981 8.58301 7.85548 9.00734C7.43115 9.43167 6.91272 9.64384 6.30019 9.64384ZM5.64266 16V13.1101C4.19608 12.9449 2.99426 12.3245 2.03718 11.2489C1.0801 10.1732 0.601562 8.90754 0.601562 7.45205H1.91663C1.91663 8.66484 2.34403 9.69863 3.19882 10.5534C4.05362 11.4082 5.08741 11.8356 6.30019 11.8356C7.51298 11.8356 8.54677 11.4082 9.40156 10.5534C10.2564 9.69863 10.6838 8.66484 10.6838 7.45205H11.9988C11.9988 8.90754 11.5203 10.1732 10.5632 11.2489C9.60613 12.3245 8.4043 12.9449 6.95773 13.1101V16H5.64266ZM6.30019 8.32877C6.54859 8.32877 6.75681 8.24475 6.92485 8.07671C7.09289 7.90868 7.17691 7.70046 7.17691 7.45205V2.19178C7.17691 1.94338 7.09289 1.73516 6.92485 1.56712C6.75681 1.39909 6.54859 1.31507 6.30019 1.31507C6.05179 1.31507 5.84357 1.39909 5.67554 1.56712C5.5075 1.73516 5.42348 1.94338 5.42348 2.19178V7.45205C5.42348 7.70046 5.5075 7.90868 5.67554 8.07671C5.84357 8.24475 6.05179 8.32877 6.30019 8.32877Z" fill="white"/>
</svg>
