<svg width="60" height="60" viewBox="0 0 60 60" fill="none" xmlns="http://www.w3.org/2000/svg">
<path d="M23.6207 41.3793L41.3793 30L23.6207 18.6207V41.3793ZM30.015 60C25.8671 60 21.9667 59.2129 18.314 57.6387C14.6611 56.0645 11.4837 53.928 8.78164 51.2294C6.07963 48.5307 3.94052 45.3573 2.36431 41.7091C0.788103 38.061 0 34.1629 0 30.015C0 25.8671 0.787098 21.9667 2.36129 18.314C3.93555 14.6612 6.07198 11.4837 8.7706 8.78172C11.4693 6.07965 14.6427 3.94052 18.2909 2.36431C21.939 0.788106 25.8371 0 29.985 0C34.1329 0 38.0333 0.787097 41.686 2.36129C45.3389 3.93555 48.5163 6.07198 51.2183 8.77061C53.9204 11.4693 56.0595 14.6427 57.6357 18.2909C59.2119 21.939 60 25.8371 60 29.985C60 34.1329 59.2129 38.0333 57.6387 41.686C56.0645 45.3389 53.928 48.5163 51.2294 51.2184C48.5307 53.9204 45.3573 56.0595 41.7091 57.6357C38.061 59.2119 34.1629 60 30.015 60ZM30 57.5862C37.7011 57.5862 44.2241 54.9138 49.569 49.569C54.9138 44.2241 57.5862 37.7011 57.5862 30C57.5862 22.2989 54.9138 15.7759 49.569 10.431C44.2241 5.08621 37.7011 2.41379 30 2.41379C22.2989 2.41379 15.7759 5.08621 10.431 10.431C5.08621 15.7759 2.41379 22.2989 2.41379 30C2.41379 37.7011 5.08621 44.2241 10.431 49.569C15.7759 54.9138 22.2989 57.5862 30 57.5862Z" fill="#FDF7EE" fill-opacity="0.6"/>
</svg>
