<svg width="33" height="31" viewBox="0 0 33 31" fill="none" xmlns="http://www.w3.org/2000/svg">
<g id="Group">
<g id="Group_2">
<path id="Vector" d="M26.4645 10.6416C26.464 10.4883 26.4605 10.3358 26.4536 10.1841V1.53443L24.0623 3.92571C22.1052 1.5301 19.1279 0 15.7931 0C12.3226 0 9.23942 1.65653 7.29044 4.22192L11.21 8.18275C11.5942 7.47234 12.1399 6.86217 12.7978 6.40133C13.4821 5.86732 14.4517 5.4307 15.7929 5.4307C15.955 5.4307 16.08 5.44963 16.1719 5.48531C17.8337 5.61647 19.2742 6.53357 20.1223 7.86468L17.3478 10.6392C20.862 10.6254 24.832 10.6173 26.4642 10.641" fill="#1C3AA9"/>
<path id="Vector_2" d="M15.7307 0.000732422C15.5774 0.00124136 15.425 0.0047785 15.2733 0.0116492H6.62357L9.01486 2.40293C6.61925 4.36006 5.08914 7.33737 5.08914 10.6722C5.08914 14.1427 6.74569 17.2258 9.31106 19.1748L13.2719 15.2552C12.5615 14.8711 11.9513 14.3254 11.4905 13.6674C10.9565 12.9831 10.5198 12.0136 10.5198 10.6723C10.5198 10.5103 10.5388 10.3852 10.5744 10.2933C10.7056 8.63155 11.6227 7.1911 12.9538 6.34295L15.7283 9.11744C15.7145 5.6032 15.7064 1.63321 15.7301 0.00103779" fill="#4285F4"/>
<path id="Vector_3" d="M5.08957 10.6716C5.09008 10.8249 5.09362 10.9774 5.10049 11.1291V19.7788L7.49177 17.3875C9.4489 19.7831 12.4262 21.3132 15.761 21.3132C19.2315 21.3132 22.3147 19.6567 24.2637 17.0913L20.344 13.1304C19.9599 13.8409 19.4142 14.451 18.7563 14.9119C18.072 15.4459 17.1024 15.8825 15.7612 15.8825C15.5991 15.8825 15.4741 15.8636 15.3822 15.8279C13.7204 15.6967 12.2799 14.7796 11.4318 13.4485L14.2063 10.674C10.692 10.6878 6.72205 10.6959 5.08987 10.6722" fill="#ABABAB"/>
</g>
<path id="Vector_4" d="M6.89017 25.4461C6.63023 25.4461 6.39719 25.4954 6.19102 25.594C5.98486 25.6904 5.81007 25.8282 5.66665 26.0074C5.52548 26.1867 5.4168 26.4041 5.3406 26.6595C5.26665 26.9127 5.22968 27.1962 5.22968 27.5099V28.4141C5.22968 28.73 5.26665 29.0146 5.3406 29.2679C5.41679 29.5211 5.52435 29.7373 5.6633 29.9166C5.80224 30.0959 5.97029 30.2337 6.16748 30.33C6.36467 30.4264 6.58651 30.4746 6.83302 30.4746C7.08623 30.4746 7.30809 30.4376 7.49856 30.3636C7.69127 30.2897 7.85261 30.1832 7.98259 30.0443C8.11256 29.9031 8.21228 29.7329 8.28174 29.5334C8.35345 29.334 8.39603 29.1076 8.40947 28.8544H7.78762C7.77194 29.0494 7.74505 29.2163 7.70695 29.3552C7.66886 29.4919 7.61284 29.6051 7.53889 29.6947C7.46718 29.7821 7.37306 29.8471 7.25653 29.8897C7.14224 29.93 7.00106 29.9502 6.83301 29.9502C6.65374 29.9502 6.50136 29.911 6.37588 29.8325C6.25039 29.7519 6.14844 29.6421 6.07001 29.5031C5.99382 29.3642 5.9378 29.2017 5.90194 29.0157C5.86833 28.8298 5.85152 28.6292 5.85152 28.4141V27.5032C5.85152 27.2724 5.87169 27.0628 5.91203 26.8746C5.9546 26.6864 6.01847 26.5262 6.10362 26.3939C6.18877 26.2617 6.29633 26.1598 6.42631 26.0881C6.55628 26.0141 6.71091 25.9771 6.89016 25.9771C7.0403 25.9771 7.16914 25.9995 7.2767 26.0444C7.38427 26.087 7.4739 26.1542 7.5456 26.246C7.61731 26.3357 7.67221 26.45 7.71031 26.5889C7.7484 26.7278 7.77417 26.8936 7.78761 27.0864H8.40947C8.39826 26.8219 8.3568 26.5878 8.2851 26.3838C8.21339 26.1799 8.11367 26.0085 7.98594 25.8696C7.85821 25.7306 7.70246 25.6253 7.51873 25.5536C7.33722 25.4819 7.12772 25.4461 6.89017 25.4461ZM22.0698 25.4461C21.8099 25.4461 21.5769 25.4954 21.3707 25.594C21.1645 25.6904 20.9897 25.8282 20.8463 26.0074C20.7051 26.1867 20.5965 26.4041 20.5203 26.6595C20.4463 26.9127 20.4093 27.1962 20.4093 27.5099V28.4141C20.4093 28.73 20.4463 29.0146 20.5203 29.2679C20.5965 29.5211 20.704 29.7373 20.843 29.9166C20.9819 30.0959 21.15 30.2337 21.3471 30.33C21.5443 30.4264 21.7662 30.4746 22.0127 30.4746C22.2659 30.4746 22.4877 30.4376 22.6782 30.3636C22.8709 30.2897 23.0323 30.1832 23.1623 30.0443C23.2922 29.9031 23.3919 29.7329 23.4614 29.5334C23.5331 29.334 23.5757 29.1076 23.5891 28.8544H22.9673C22.9516 29.0494 22.9247 29.2163 22.8866 29.3552C22.8485 29.4919 22.7925 29.6051 22.7186 29.6947C22.6469 29.7821 22.5528 29.8471 22.4362 29.8897C22.3219 29.93 22.1808 29.9502 22.0127 29.9502C21.8334 29.9502 21.6811 29.911 21.5556 29.8325C21.4301 29.7519 21.3281 29.6421 21.2497 29.5031C21.1735 29.3642 21.1175 29.2017 21.0816 29.0157C21.048 28.8298 21.0312 28.6292 21.0312 28.4141V27.5032C21.0312 27.2724 21.0514 27.0628 21.0917 26.8746C21.1343 26.6864 21.1982 26.5262 21.2833 26.3939C21.3685 26.2617 21.476 26.1598 21.606 26.0881C21.736 26.0141 21.8906 25.9771 22.0698 25.9771C22.22 25.9771 22.3488 25.9995 22.4564 26.0444C22.5639 26.087 22.6536 26.1542 22.7253 26.246C22.797 26.3357 22.8519 26.45 22.89 26.5889C22.9281 26.7278 22.9538 26.8936 22.9673 27.0864H23.5891C23.5779 26.8219 23.5364 26.5878 23.4647 26.3838C23.393 26.1799 23.2933 26.0085 23.1656 25.8696C23.0379 25.7306 22.8821 25.6253 22.6984 25.5536C22.5169 25.4819 22.3074 25.4461 22.0698 25.4461ZM10.4332 25.5133L8.85672 30.4073H9.48865L9.86847 29.13H11.5222L11.9088 30.4073H12.5407L10.9609 25.5133H10.4332ZM13.2061 25.5133V30.4073H13.8212V28.4914H14.7657C15.001 28.4914 15.2094 28.4589 15.391 28.3939C15.5725 28.3267 15.7248 28.2303 15.8481 28.1048C15.9736 27.9793 16.0677 27.8247 16.1304 27.641C16.1954 27.455 16.2279 27.2444 16.2279 27.009C16.2279 26.7917 16.1954 26.5922 16.1304 26.4107C16.0677 26.227 15.9747 26.069 15.8514 25.9368C15.7282 25.8023 15.5747 25.6981 15.391 25.6242C15.2094 25.5502 15.0011 25.5133 14.7657 25.5133L13.2061 25.5133ZM16.6985 25.5133V26.0444H17.9825V30.4073H18.5976V26.0444H19.885V25.5133H16.6985ZM24.4194 25.5133V30.4073H25.0345V28.1452H27.0042V30.4073H27.6226V25.5133H27.0042V27.6175H25.0345V25.5133H24.4194ZM29.9554 25.5133L28.3789 30.4073H29.0108L29.3907 29.13H31.0444L31.431 30.4073H32.0629L30.4831 25.5133H29.9554ZM13.8212 26.0444H14.7657C14.9158 26.0444 15.0436 26.0713 15.1489 26.1251C15.2564 26.1789 15.3438 26.2506 15.4111 26.3402C15.4805 26.4298 15.5309 26.534 15.5623 26.6528C15.5959 26.7693 15.6127 26.8903 15.6127 27.0158C15.6127 27.1547 15.5959 27.2825 15.5623 27.399C15.5309 27.5133 15.4805 27.613 15.4111 27.6982C15.3438 27.7811 15.2564 27.8461 15.1489 27.8931C15.0436 27.9402 14.9158 27.9637 14.7657 27.9637H13.8212V26.0444ZM10.6953 26.3738L11.3642 28.599H10.0298L10.6953 26.3738ZM30.2175 26.3738L30.8864 28.599H29.552L30.2175 26.3738ZM1.26383 26.7032C1.10922 26.7032 0.975876 26.7424 0.863833 26.8209C0.754031 26.8993 0.662155 27.0057 0.588216 27.1402L0.578131 26.7704H0V30.4073H0.594952V27.8056C0.650973 27.651 0.730523 27.5289 0.833601 27.4392C0.938922 27.3496 1.07225 27.3048 1.2336 27.3048C1.28514 27.3048 1.33108 27.3071 1.37141 27.3115C1.41175 27.3138 1.45545 27.3193 1.5025 27.3283L1.49914 26.7502C1.49018 26.7457 1.47561 26.7412 1.45545 26.7367C1.43752 26.73 1.41735 26.7244 1.39494 26.7199C1.37253 26.7154 1.34901 26.7121 1.32436 26.7098C1.30194 26.7053 1.28178 26.7031 1.26385 26.7031L1.26383 26.7032ZM3.26379 26.7032C3.09125 26.7032 2.9243 26.7335 2.76297 26.794C2.60163 26.8545 2.45822 26.9542 2.33274 27.0931C2.20949 27.2298 2.10977 27.4091 2.03358 27.6309C1.95739 27.8505 1.9193 28.1206 1.9193 28.441V28.8511C1.9193 29.129 1.95179 29.3699 2.01678 29.5738C2.08176 29.7777 2.17476 29.9469 2.29575 30.0813C2.419 30.2135 2.56801 30.3121 2.74281 30.3771C2.91759 30.4421 3.11367 30.4746 3.33104 30.4746C3.4879 30.4746 3.62796 30.4589 3.7512 30.4276C3.87668 30.3962 3.98761 30.3558 4.08397 30.3065C4.18032 30.255 4.26324 30.1967 4.3327 30.1318C4.40217 30.0668 4.46155 29.9996 4.51085 29.9301L4.20162 29.5536C4.15232 29.6141 4.09966 29.6701 4.04363 29.7217C3.98761 29.771 3.92599 29.8147 3.85876 29.8528C3.79154 29.8886 3.71759 29.9166 3.63692 29.9368C3.55625 29.957 3.46549 29.9671 3.36466 29.9671C3.08905 29.9671 2.87728 29.8785 2.72938 29.7015C2.58372 29.5245 2.51089 29.241 2.51089 28.8511V28.7671H4.54111V28.4209C4.54111 28.143 4.51758 27.8976 4.47052 27.6847C4.42347 27.4718 4.3484 27.2926 4.24532 27.1469C4.14224 27.0013 4.01002 26.8915 3.84867 26.8175C3.68733 26.7413 3.49238 26.7032 3.26379 26.7032ZM3.26379 27.2142C3.39376 27.2142 3.50132 27.2377 3.58649 27.2847C3.67164 27.3318 3.73886 27.3979 3.78816 27.4831C3.83971 27.5682 3.87668 27.6702 3.89909 27.7889C3.92373 27.9055 3.93942 28.0343 3.94614 28.1755V28.2561H2.51424C2.5232 28.0522 2.54785 27.883 2.58819 27.7486C2.62852 27.6141 2.68118 27.5077 2.74617 27.4293C2.81339 27.3486 2.8907 27.2926 2.9781 27.2612C3.06549 27.2298 3.1607 27.2142 3.26379 27.2142Z" fill="#A6A6A6"/>
</g>
</svg>
