<svg width="17" height="16" viewBox="0 0 17 16" fill="none" xmlns="http://www.w3.org/2000/svg">
<path fill-rule="evenodd" clip-rule="evenodd" d="M12.2864 10.5329L16.3636 14.6108C16.6808 14.9281 16.6818 15.4414 16.361 15.7624C16.0423 16.0811 15.5211 16.0765 15.2097 15.765L11.1325 11.687C8.57159 13.6804 4.86735 13.5 2.5135 11.1457C-0.0357493 8.59594 -0.0357493 4.46202 2.5135 1.91229C5.06275 -0.637431 9.19589 -0.637431 11.7451 1.91229C14.099 4.26658 14.2794 7.97152 12.2864 10.5329ZM10.5912 9.99149C12.5031 8.0792 12.5031 4.97876 10.5912 3.06647C8.67925 1.15417 5.57939 1.15417 3.66745 3.06647C1.75552 4.97876 1.75552 8.0792 3.66745 9.99149C5.57939 11.9038 8.67925 11.9038 10.5912 9.99149Z" fill="white"/>
</svg>
