<svg width="16" height="16" viewBox="0 0 16 16" fill="none" xmlns="http://www.w3.org/2000/svg">
<path d="M2.85714 3.2C2.40816 3.2 2.02381 3.04333 1.70408 2.73C1.38435 2.41667 1.22449 2.04 1.22449 1.6C1.22449 1.16 1.38435 0.783333 1.70408 0.47C2.02381 0.156667 2.40816 0 2.85714 0C3.30612 0 3.69048 0.156667 4.0102 0.47C4.32993 0.783333 4.4898 1.16 4.4898 1.6C4.4898 2.04 4.32993 2.41667 4.0102 2.73C3.69048 3.04333 3.30612 3.2 2.85714 3.2ZM1.63265 16V10.4H0V5.6C0 5.16 0.159864 4.78333 0.479592 4.47C0.79932 4.15667 1.18367 4 1.63265 4H4.08163C4.53061 4 4.91497 4.15667 5.23469 4.47C5.55442 4.78333 5.71429 5.16 5.71429 5.6V7.16C4.85714 7.64 4.16667 8.30667 3.64286 9.16C3.11905 10.0133 2.85714 10.96 2.85714 12C2.85714 12.76 3 13.4767 3.28571 14.15C3.57143 14.8233 3.97279 15.4133 4.4898 15.92V16H1.63265ZM8.57143 16C7.44218 16 6.47959 15.61 5.68367 14.83C4.88775 14.05 4.4898 13.1067 4.4898 12C4.4898 11.1067 4.7585 10.3167 5.29592 9.63C5.83333 8.94333 6.51701 8.46667 7.34694 8.2V9.94C6.97959 10.1533 6.68367 10.44 6.45918 10.8C6.23469 11.16 6.12245 11.56 6.12245 12C6.12245 12.6667 6.36054 13.2333 6.83673 13.7C7.31292 14.1667 7.89116 14.4 8.57143 14.4C9.2517 14.4 9.82993 14.1667 10.3061 13.7C10.7823 13.2333 11.0204 12.6667 11.0204 12H12.6531C12.6531 13.1067 12.2551 14.05 11.4592 14.83C10.6633 15.61 9.70068 16 8.57143 16ZM14.6327 14.16L12.6122 11.2H8.16327V4.8H9.79592V9.6H13.5102L16 13.28L14.6327 14.16Z" fill="black"/>
</svg>
