<svg width="100" height="36" fill="none" xmlns="http://www.w3.org/2000/svg"><path d="M94.42 3.696c0 1.54 1.176 2.857 2.81 2.857 1.553 0 2.77-1.317 2.77-2.857A2.739 2.739 0 0 0 97.23.929c-1.633 0-2.81 1.215-2.81 2.767Zm-55.098-.007v7.023c-1.544-.698-3.88-1.354-6.136-1.354-6.037 0-9.502 3.601-10.016 9.412-.14 1.69-.14 5.012 0 6.652.514 5.76 4.355 9.649 10.678 9.649 4.543 0 8.334-2.016 9.55-2.909.752-.511.891-1.03.891-1.873v-26.6c0-1.402-1.078-2.528-2.484-2.528-1.356 0-2.483 1.126-2.483 2.528ZM28.129 24.811c-.13-1.454-.09-4.214 0-5.478.188-3.418 1.88-5.199 5.433-5.199 2.443 0 4.78.843 5.76 1.453v13.015c-.932.707-3.366 1.687-5.384 1.687-3.603 0-5.523-1.874-5.809-5.478Zm43.358-12.882c-.703.473-.989.942-.989 1.92v18.406c0 1.404 1.177 2.534 2.492 2.534 1.397 0 2.476-1.13 2.476-2.535V15.448c1.07-.659 3.276-1.313 5.572-1.313 2.908 0 5.44 1.593 5.44 5.34v12.78c0 1.405 1.16 2.535 2.476 2.535 1.455 0 2.484-1.13 2.484-2.535V19.242c0-6.326-3.464-9.883-10.254-9.883-4.918 0-8.341 1.55-9.697 2.571Zm-21.16-1.172c-1.267.565-1.642 1.502-1.642 2.302 0 1.45 1.356 2.528 3.423 1.87 1.307-.466 3.178-1.027 5.098-1.027 3.652 0 5.204 1.354 5.204 4.542v1.54c-2.157-.51-3.758-.788-5.956-.788-6.552 0-9.502 3.702-9.502 7.77 0 4.59 3.178 8.105 9.6 8.105 4.87 0 8.432-1.737 9.747-2.626.702-.47.882-.98.882-1.823V18.444c0-6.328-3.692-9.086-9.69-9.086-2.858 0-5.808.747-7.164 1.399Zm1.495 16.026c0-2.248 2.059-3.521 4.918-3.521 2.108 0 3.603.285 5.67.798v5.202c-.473.372-2.206 1.453-5.44 1.453-3.318 0-5.148-1.406-5.148-3.932ZM3.358 10.757c-1.258.565-1.642 1.502-1.642 2.302 0 1.45 1.364 2.528 3.423 1.87 1.315-.468 3.194-1.028 5.106-1.028 3.652 0 5.196 1.355 5.196 4.543v1.54c-2.157-.51-3.742-.788-5.948-.788-6.323 0-9.297 3.451-9.493 7.352v.875c.204 4.364 3.382 7.648 9.583 7.648 4.878 0 8.432-1.737 9.747-2.626.703-.47.89-.98.89-1.823V18.444c0-6.328-3.7-9.086-9.697-9.086-2.851 0-5.801.747-7.165 1.399Zm1.503 16.026c0-2.25 2.059-3.521 4.91-3.521 2.108 0 3.611.285 5.67.798v5.202c-.466.372-2.198 1.453-5.433 1.453-3.325 0-5.147-1.406-5.147-3.932Zm89.886-14.472v20.04c0 1.408 1.176 2.538 2.484 2.538 1.405 0 2.491-1.13 2.491-2.537V12.31c0-1.403-1.127-2.527-2.492-2.527-1.405 0-2.483 1.124-2.483 2.527Z" fill="#FDF7EE"/></svg>
