<svg width="100" height="36" viewBox="0 0 100 36" fill="none" xmlns="http://www.w3.org/2000/svg">
<path d="M94.4198 3.69564C94.4198 5.23551 95.5963 6.55272 97.2303 6.55272C98.783 6.55272 100 5.23551 100 3.69564C100 2.14401 98.7826 0.929193 97.2305 0.929193C95.5965 0.929193 94.42 2.14401 94.42 3.69564H94.4198ZM39.3218 3.68911V10.712C37.7778 10.0135 35.4412 9.35817 33.1863 9.35817C27.1486 9.35817 23.6845 12.9595 23.1699 18.7699C23.0309 20.4595 23.0309 23.7815 23.1699 25.422C23.6845 31.1817 27.5246 35.0708 33.8482 35.0708C38.3906 35.0708 42.1815 33.0551 43.3985 32.1623C44.1505 31.6505 44.2893 31.1312 44.2893 30.2887V3.68911C44.2893 2.28693 43.2107 1.16057 41.8054 1.16057C40.4492 1.16057 39.3218 2.28693 39.3218 3.68911ZM28.129 24.8109C27.9983 23.3573 28.0392 20.5974 28.129 19.3329C28.317 15.9146 30.0081 14.1344 33.5621 14.1344C36.0048 14.1344 38.3414 14.9767 39.322 15.5869V28.6024C38.3904 29.3091 35.9558 30.2887 33.9379 30.2887C30.3353 30.2887 28.415 28.4146 28.129 24.8109ZM71.4869 11.9292C70.7843 12.4015 70.498 12.8712 70.498 13.8486L70.4983 32.2545C70.4983 33.6586 71.6747 34.7889 72.99 34.7889C74.3871 34.7887 75.4656 33.6586 75.4656 32.2545L75.4658 15.4473C76.5362 14.788 78.7416 14.1344 81.0375 14.1344C83.946 14.1344 86.4787 15.7266 86.4787 19.4734V32.2545C86.4787 33.6586 87.6388 34.7889 88.954 34.7889C90.4085 34.7887 91.4377 33.6586 91.4377 32.2545V19.2405C91.4377 12.9146 87.9736 9.35817 81.1845 9.35817C76.2662 9.35817 72.8429 10.9078 71.4867 11.9292H71.4869ZM50.327 10.7571C49.0604 11.3222 48.6845 12.2586 48.6845 13.059C48.6845 14.5094 50.0407 15.5869 52.1076 14.9283C53.4153 14.4627 55.2856 13.9022 57.2059 13.9022C60.8577 13.9022 62.4102 15.256 62.4102 18.444V19.9847C60.2534 19.4734 58.6521 19.1965 56.454 19.1965C49.902 19.1965 46.9525 22.8976 46.9525 26.9669C46.9529 31.5558 50.1305 35.0708 56.5523 35.0708C61.4216 35.0708 64.9837 33.3338 66.2989 32.4447C67.0015 31.9741 67.1813 31.4651 67.1813 30.622V18.444C67.1813 12.1157 63.4885 9.35817 57.4919 9.35817C54.6327 9.35817 51.683 10.105 50.3268 10.7569L50.327 10.7571ZM51.822 26.7832C51.822 24.5346 53.8808 23.2617 56.7401 23.2617C58.8484 23.2617 60.3429 23.5468 62.4102 24.0601V29.2617C61.9366 29.6342 60.2044 30.7146 56.9691 30.7146C53.6519 30.7146 51.8216 29.3094 51.8216 26.783H51.8218L51.822 26.7832ZM3.35795 10.7571C2.09956 11.3222 1.71569 12.2586 1.71569 13.059C1.71569 14.5094 3.08017 15.5869 5.13856 14.9283C6.45447 14.4612 8.33333 13.9007 10.2451 13.9007C13.8974 13.9007 15.4412 15.256 15.4412 18.444V19.9847C13.2843 19.4734 11.6991 19.1965 9.49346 19.1965C3.16993 19.1965 0.195861 22.6475 0 26.5477V27.4227C0.204357 31.7865 3.38235 35.0708 9.58344 35.0708C14.4608 35.0708 18.0146 33.3338 19.3301 32.4447C20.0329 31.9741 20.2205 31.4651 20.2205 30.622L20.2209 18.444C20.2209 12.1157 16.5194 9.35817 10.5229 9.35817C7.67168 9.35817 4.722 10.105 3.35773 10.7569L3.35795 10.7571ZM4.86122 26.7832C4.86122 24.5329 6.92004 23.2617 9.77124 23.2617C11.8791 23.2617 13.3824 23.5468 15.4412 24.0601V29.2617C14.9754 29.6342 13.2434 30.7146 10.0081 30.7146C6.68322 30.7146 4.861 29.3094 4.861 26.783L4.86122 26.7832ZM94.7471 12.3109V32.3516C94.7471 33.7586 95.9231 34.8885 97.2305 34.8885C98.6357 34.8885 99.722 33.7586 99.722 32.3516L99.7222 12.3109C99.7222 10.9078 98.5948 9.78366 97.2303 9.78366C95.8251 9.78366 94.7466 10.9078 94.7466 12.3109H94.7471Z" fill="#FDF7EE"/>
</svg>
